<mxfile host="Electron" agent="Mozilla/5.0 (Windows NT 10.0; Win64; x64) AppleWebKit/537.36 (KHTML, like Gecko) draw.io/26.0.9 Chrome/128.0.6613.186 Electron/32.2.5 Safari/537.36" version="26.0.9">
  <diagram name="Page-1" id="OEtRrU-9pPEc-HYWarEi">
    <mxGraphModel dx="1674" dy="836" grid="1" gridSize="10" guides="1" tooltips="1" connect="1" arrows="1" fold="1" page="1" pageScale="1" pageWidth="850" pageHeight="1100" math="0" shadow="0">
      <root>
        <mxCell id="0" />
        <mxCell id="1" parent="0" />
        <mxCell id="J6jdgjmXQalbP3qAm5ep-1" value="" style="whiteSpace=wrap;html=1;aspect=fixed;" vertex="1" parent="1">
          <mxGeometry x="80" y="20" width="560" height="560" as="geometry" />
        </mxCell>
        <mxCell id="J6jdgjmXQalbP3qAm5ep-2" value="" style="endArrow=none;html=1;rounded=0;entryX=0.25;entryY=1;entryDx=0;entryDy=0;exitX=0.25;exitY=0;exitDx=0;exitDy=0;" edge="1" parent="1" source="J6jdgjmXQalbP3qAm5ep-1" target="J6jdgjmXQalbP3qAm5ep-1">
          <mxGeometry width="50" height="50" relative="1" as="geometry">
            <mxPoint x="460" y="450" as="sourcePoint" />
            <mxPoint x="510" y="400" as="targetPoint" />
          </mxGeometry>
        </mxCell>
        <mxCell id="J6jdgjmXQalbP3qAm5ep-3" value="&lt;font style=&quot;font-size: 36px;&quot;&gt;Input&lt;/font&gt;" style="rounded=1;whiteSpace=wrap;html=1;" vertex="1" parent="1">
          <mxGeometry x="90" y="40" width="120" height="60" as="geometry" />
        </mxCell>
        <mxCell id="J6jdgjmXQalbP3qAm5ep-4" value="&lt;font style=&quot;font-size: 36px;&quot;&gt;Add&lt;/font&gt;" style="rounded=1;whiteSpace=wrap;html=1;" vertex="1" parent="1">
          <mxGeometry x="90" y="110" width="120" height="60" as="geometry" />
        </mxCell>
        <mxCell id="J6jdgjmXQalbP3qAm5ep-5" value="&lt;font style=&quot;font-size: 36px;&quot;&gt;List Items&lt;/font&gt;&lt;div&gt;&lt;font style=&quot;font-size: 36px;&quot;&gt;&lt;br&gt;&lt;/font&gt;&lt;/div&gt;&lt;div&gt;&lt;font style=&quot;font-size: 36px;&quot;&gt;&lt;br&gt;&lt;/font&gt;&lt;/div&gt;&lt;div&gt;&lt;font style=&quot;font-size: 36px;&quot;&gt;&lt;br&gt;&lt;/font&gt;&lt;/div&gt;&lt;div&gt;&lt;font style=&quot;font-size: 36px;&quot;&gt;&lt;br&gt;&lt;/font&gt;&lt;/div&gt;&lt;div&gt;&lt;font style=&quot;font-size: 36px;&quot;&gt;&lt;br&gt;&lt;/font&gt;&lt;/div&gt;&lt;div&gt;&lt;font style=&quot;font-size: 36px;&quot;&gt;&lt;br&gt;&lt;/font&gt;&lt;/div&gt;&lt;div&gt;&lt;font style=&quot;font-size: 36px;&quot;&gt;&lt;br&gt;&lt;/font&gt;&lt;/div&gt;&lt;div&gt;&lt;font style=&quot;font-size: 36px;&quot;&gt;&lt;br&gt;&lt;/font&gt;&lt;/div&gt;&lt;div&gt;&lt;font style=&quot;font-size: 36px;&quot;&gt;&lt;br&gt;&lt;/font&gt;&lt;/div&gt;" style="rounded=1;whiteSpace=wrap;html=1;" vertex="1" parent="1">
          <mxGeometry x="230" y="40" width="390" height="530" as="geometry" />
        </mxCell>
        <mxCell id="J6jdgjmXQalbP3qAm5ep-6" value="&lt;font style=&quot;font-size: 36px;&quot;&gt;Item&lt;/font&gt;" style="rounded=1;whiteSpace=wrap;html=1;" vertex="1" parent="1">
          <mxGeometry x="230" y="320" width="390" height="60" as="geometry" />
        </mxCell>
        <mxCell id="J6jdgjmXQalbP3qAm5ep-7" value="&lt;font style=&quot;font-size: 36px;&quot;&gt;Item&lt;/font&gt;" style="rounded=1;whiteSpace=wrap;html=1;" vertex="1" parent="1">
          <mxGeometry x="230" y="250" width="390" height="60" as="geometry" />
        </mxCell>
        <mxCell id="J6jdgjmXQalbP3qAm5ep-8" value="&lt;font style=&quot;font-size: 36px;&quot;&gt;Item&lt;/font&gt;" style="rounded=1;whiteSpace=wrap;html=1;" vertex="1" parent="1">
          <mxGeometry x="230" y="180" width="390" height="60" as="geometry" />
        </mxCell>
        <mxCell id="J6jdgjmXQalbP3qAm5ep-10" value="&lt;font style=&quot;font-size: 36px;&quot;&gt;App&lt;/font&gt;" style="rounded=1;whiteSpace=wrap;html=1;" vertex="1" parent="1">
          <mxGeometry x="330" y="620" width="120" height="60" as="geometry" />
        </mxCell>
        <mxCell id="J6jdgjmXQalbP3qAm5ep-11" value="&lt;font style=&quot;font-size: 36px;&quot;&gt;Item&lt;/font&gt;" style="rounded=1;whiteSpace=wrap;html=1;" vertex="1" parent="1">
          <mxGeometry x="360" y="930" width="120" height="60" as="geometry" />
        </mxCell>
        <mxCell id="J6jdgjmXQalbP3qAm5ep-12" value="&lt;font style=&quot;font-size: 36px;&quot;&gt;Side Bar&lt;/font&gt;" style="rounded=1;whiteSpace=wrap;html=1;" vertex="1" parent="1">
          <mxGeometry x="90" y="760" width="210" height="60" as="geometry" />
        </mxCell>
        <mxCell id="J6jdgjmXQalbP3qAm5ep-13" value="&lt;font style=&quot;font-size: 36px;&quot;&gt;List Items&lt;/font&gt;" style="rounded=1;whiteSpace=wrap;html=1;" vertex="1" parent="1">
          <mxGeometry x="465" y="760" width="210" height="60" as="geometry" />
        </mxCell>
        <mxCell id="J6jdgjmXQalbP3qAm5ep-14" value="&lt;font style=&quot;font-size: 36px;&quot;&gt;Item&lt;/font&gt;" style="rounded=1;whiteSpace=wrap;html=1;" vertex="1" parent="1">
          <mxGeometry x="510" y="930" width="120" height="60" as="geometry" />
        </mxCell>
        <mxCell id="J6jdgjmXQalbP3qAm5ep-15" value="&lt;font style=&quot;font-size: 36px;&quot;&gt;Item&lt;/font&gt;" style="rounded=1;whiteSpace=wrap;html=1;" vertex="1" parent="1">
          <mxGeometry x="660" y="930" width="120" height="60" as="geometry" />
        </mxCell>
        <mxCell id="J6jdgjmXQalbP3qAm5ep-16" value="" style="endArrow=classic;html=1;rounded=0;entryX=0.5;entryY=0;entryDx=0;entryDy=0;exitX=0.5;exitY=1;exitDx=0;exitDy=0;" edge="1" parent="1" source="J6jdgjmXQalbP3qAm5ep-13" target="J6jdgjmXQalbP3qAm5ep-11">
          <mxGeometry width="50" height="50" relative="1" as="geometry">
            <mxPoint x="460" y="710" as="sourcePoint" />
            <mxPoint x="510" y="660" as="targetPoint" />
          </mxGeometry>
        </mxCell>
        <mxCell id="J6jdgjmXQalbP3qAm5ep-17" value="" style="endArrow=classic;html=1;rounded=0;entryX=0.5;entryY=0;entryDx=0;entryDy=0;exitX=0.5;exitY=1;exitDx=0;exitDy=0;" edge="1" parent="1" source="J6jdgjmXQalbP3qAm5ep-10" target="J6jdgjmXQalbP3qAm5ep-12">
          <mxGeometry width="50" height="50" relative="1" as="geometry">
            <mxPoint x="580" y="830" as="sourcePoint" />
            <mxPoint x="430" y="940" as="targetPoint" />
          </mxGeometry>
        </mxCell>
        <mxCell id="J6jdgjmXQalbP3qAm5ep-18" value="" style="endArrow=classic;html=1;rounded=0;exitX=0.5;exitY=1;exitDx=0;exitDy=0;" edge="1" parent="1" source="J6jdgjmXQalbP3qAm5ep-13" target="J6jdgjmXQalbP3qAm5ep-14">
          <mxGeometry width="50" height="50" relative="1" as="geometry">
            <mxPoint x="590" y="840" as="sourcePoint" />
            <mxPoint x="440" y="950" as="targetPoint" />
          </mxGeometry>
        </mxCell>
        <mxCell id="J6jdgjmXQalbP3qAm5ep-19" value="" style="endArrow=classic;html=1;rounded=0;entryX=0.5;entryY=0;entryDx=0;entryDy=0;exitX=0.5;exitY=1;exitDx=0;exitDy=0;" edge="1" parent="1" source="J6jdgjmXQalbP3qAm5ep-13" target="J6jdgjmXQalbP3qAm5ep-15">
          <mxGeometry width="50" height="50" relative="1" as="geometry">
            <mxPoint x="600" y="850" as="sourcePoint" />
            <mxPoint x="450" y="960" as="targetPoint" />
          </mxGeometry>
        </mxCell>
        <mxCell id="J6jdgjmXQalbP3qAm5ep-20" value="" style="endArrow=classic;html=1;rounded=0;entryX=0.5;entryY=0;entryDx=0;entryDy=0;" edge="1" parent="1" target="J6jdgjmXQalbP3qAm5ep-13">
          <mxGeometry width="50" height="50" relative="1" as="geometry">
            <mxPoint x="390" y="680" as="sourcePoint" />
            <mxPoint x="295" y="770" as="targetPoint" />
          </mxGeometry>
        </mxCell>
        <mxCell id="J6jdgjmXQalbP3qAm5ep-21" value="&lt;font style=&quot;font-size: 36px;&quot;&gt;Add&lt;/font&gt;" style="rounded=1;whiteSpace=wrap;html=1;" vertex="1" parent="1">
          <mxGeometry x="200" y="930" width="100" height="60" as="geometry" />
        </mxCell>
        <mxCell id="J6jdgjmXQalbP3qAm5ep-22" value="&lt;font style=&quot;font-size: 36px;&quot;&gt;Input&lt;/font&gt;" style="rounded=1;whiteSpace=wrap;html=1;" vertex="1" parent="1">
          <mxGeometry x="50" y="930" width="130" height="60" as="geometry" />
        </mxCell>
        <mxCell id="J6jdgjmXQalbP3qAm5ep-23" value="" style="endArrow=classic;html=1;rounded=0;entryX=0.5;entryY=0;entryDx=0;entryDy=0;exitX=0.5;exitY=1;exitDx=0;exitDy=0;" edge="1" parent="1" source="J6jdgjmXQalbP3qAm5ep-12" target="J6jdgjmXQalbP3qAm5ep-22">
          <mxGeometry width="50" height="50" relative="1" as="geometry">
            <mxPoint x="200" y="820" as="sourcePoint" />
            <mxPoint x="50" y="930" as="targetPoint" />
          </mxGeometry>
        </mxCell>
        <mxCell id="J6jdgjmXQalbP3qAm5ep-24" value="" style="endArrow=classic;html=1;rounded=0;entryX=0.5;entryY=0;entryDx=0;entryDy=0;exitX=0.5;exitY=1;exitDx=0;exitDy=0;" edge="1" parent="1" source="J6jdgjmXQalbP3qAm5ep-12" target="J6jdgjmXQalbP3qAm5ep-21">
          <mxGeometry width="50" height="50" relative="1" as="geometry">
            <mxPoint x="205" y="830" as="sourcePoint" />
            <mxPoint x="125" y="940" as="targetPoint" />
          </mxGeometry>
        </mxCell>
      </root>
    </mxGraphModel>
  </diagram>
</mxfile>
